<svg xmlns="http://www.w3.org/2000/svg" viewBox="70.02499267578125 54.70999717712402 434.95001220703125 430.99500370025635"> <svg xmlns="http://www.w3.org/2000/svg" xmlns:xlink="http://www.w3.org/1999/xlink" version="1.1" id="Layer_1" x="179.43892669677734" y="124.70999717712402" viewBox="0 0 1052 1119.546142578125" xml:space="preserve" height="229.99998474121094" width="216.1221466064453" preserveAspectRatio="xMinYMin" enable-background="new 0 0 1051.9 1119.6" style="overflow: visible;"><linearGradient id="SVGID_1_" gradientUnits="userSpaceOnUse" x1="226.9522" y1="-47.0566" x2="815.9377" y2="1204.5377" style=""><stop offset="5.586592e-03" style="stop-color: #38FFE2;"></stop><stop offset="1" style="stop-color: #005CFF;"></stop></linearGradient><path class="st0" d="M990.4,249.2l-403-232.7C568.4,5.5,547.2,0,525.9,0c-21.2,0-42.4,5.5-61.5,16.5l-403,232.7   C23.4,271.1,0,311.7,0,355.6v261.7v58.2V821c0,43.9,23.4,84.5,61.5,106.4c0,0,201.7,116.5,319.8,184.6c35.4,20.5,79.3-3.1,83-42.7   l0.3-5.5v-20.6V395l61.4-35.4l61.4,35.4v648.2v20.6l0.3,5.5c3.8,39.5,47.6,63.1,83,42.7c118.1-68.2,319.8-184.6,319.8-184.6   c38-22,61.5-62.5,61.5-106.4V675.5v-58.2V355.6C1051.9,311.7,1028.4,271.1,990.4,249.2z M363.4,984.8L112.1,839.7   c-6.7-3.9-10.8-11-10.8-18.8V675.5v-58.2c0-7.7,4.2-14.9,10.8-18.8l251.3-145.1V984.8z M101.2,487.9V355.6   c0-7.7,4.1-14.9,10.8-18.8l403-232.7c3.3-1.9,7-2.9,10.8-2.9c3.8,0,7.5,1,10.8,2.9l403,232.7c6.7,3.9,10.8,11,10.8,18.8v132.3   L525.9,242.7L101.2,487.9z M950.6,821c0,7.7-4.1,14.9-10.8,18.8L688.5,984.8V453.5l251.3,145.1c6.7,3.9,10.8,11.1,10.8,18.8v58.2   V821z" style="fill: url(#SVGID_1_);"></path><linearGradient id="SVGID_2_" gradientUnits="userSpaceOnUse" x1="232.2925" y1="156.2565" x2="232.2925" y2="823.2094" style=""><stop offset="0" style="stop-color: #0027C9;"></stop><stop offset="1" style="stop-color: #0054B6; stop-opacity: 0;"></stop></linearGradient><path class="st1" d="M61.5,927.4c0,0,201.7,116.5,319.8,184.6c35.4,20.5,79.3-3.1,83-42.7l0.3-5.5v-20.6V395l-101.2,58.4v531.3    L112.1,839.7c-6.7-3.9-10.8-11-10.8-18.8V675.5v-58.2c0-7.7,4.2-14.9,10.8-18.8l-66.7,37.1C17.3,651.8,0,681.6,0,714v107    C0,864.9,23.4,905.5,61.5,927.4z" style="fill: url(#SVGID_2_);"></path><linearGradient id="SVGID_3_" gradientUnits="userSpaceOnUse" x1="819.5817" y1="156.2565" x2="819.5817" y2="823.2094" style=""><stop offset="0" style="stop-color: #0027C9;"></stop><stop offset="1" style="stop-color: #0054B6; stop-opacity: 0;"></stop></linearGradient><path class="st2" d="M1006.5,635.7l-66.7-37.1c6.7,3.9,10.8,11.1,10.8,18.8v58.2V821c0,7.7-4.1,14.9-10.8,18.8L688.5,984.8V453.5    L587.3,395v648.2v20.6l0.3,5.5c3.8,39.5,47.6,63.1,83,42.7c118.1-68.2,319.8-184.6,319.8-184.6c38-22,61.4-62.5,61.5-106.4V714    C1051.9,681.6,1034.6,651.8,1006.5,635.7z" style="fill: url(#SVGID_3_);"></path><linearGradient id="SVGID_4_" gradientUnits="userSpaceOnUse" x1="618.401" y1="850.101" x2="1032.9082" y2="850.101" style=""><stop offset="0" style="stop-color: #0027C9;"></stop><stop offset="1" style="stop-color: #0054B6; stop-opacity: 0;"></stop></linearGradient><path class="st3" d="M1051.9,820.9v-107c0-32.3-17.3-62.2-45.4-78.3l-66.7-37.1c6.7,3.9,10.8,11.1,10.8,18.8v58.2v145.4    c0,7.7-4.1,14.9-10.8,18.8L688.5,984.8v116.9c119.4-68.9,301.9-174.3,301.9-174.3C1028.4,905.4,1051.9,864.9,1051.9,820.9z" style="fill: url(#SVGID_4_);"></path><linearGradient id="SVGID_5_" gradientUnits="userSpaceOnUse" x1="462.9804" y1="896.8125" x2="55.3261" y2="812.2822" style=""><stop offset="0" style="stop-color: #0027C9;"></stop><stop offset="1" style="stop-color: #0054B6; stop-opacity: 0;"></stop></linearGradient><path class="st4" d="M112.1,839.7c-6.7-3.9-10.8-11-10.8-18.8V675.5v-58.2c0-7.7,4.2-14.9,10.8-18.8l-66.7,37.1    C17.3,651.7,0,681.6,0,713.9v107c0,43.9,23.4,84.5,61.5,106.4c0,0,182.5,105.4,301.9,174.3V984.8L112.1,839.7z" style="fill: url(#SVGID_5_);"></path></svg> <svg y="389.854998588562" viewBox="0.6100000143051147 10.619999885559082 294.95001220703125 25.85000228881836" x="140.02499267578125" height="25.85000228881836" width="294.95001220703125" style="overflow: visible;"><g fill="#4e5274" fill-opacity="1" style=""><path d="M8.06 11.12L13.57 11.12L13.57 35.96L8.06 35.96L8.06 11.12ZM0.61 11.12L21.06 11.12L21.06 15.44L0.61 15.44L0.61 11.12ZM36.73 11.12L41.95 11.12Q42.63 11.12 43.15 11.52Q43.68 11.92 43.86 12.56L43.86 12.56L51.06 35.96L45.44 35.96L40.36 17.71Q40.22 17.10 40.08 16.47Q39.93 15.84 39.82 15.26L39.82 15.26L38.85 15.26Q38.74 15.84 38.62 16.47Q38.49 17.10 38.31 17.71L38.31 17.71L33.24 35.96L27.58 35.96L34.82 12.56Q35.00 11.92 35.52 11.52Q36.04 11.12 36.73 11.12L36.73 11.12ZM32.88 25.27L45.76 25.27L45.76 29.41L32.88 29.41L32.88 25.27ZM71.15 10.76L71.15 10.76Q74.43 10.76 76.46 11.43Q78.50 12.10 79.45 13.70Q80.40 15.30 80.40 18.14L80.40 18.14Q80.40 19.87 79.95 21.19Q79.50 22.50 78.46 23.29Q77.42 24.08 75.62 24.30L75.62 24.30L75.62 24.48Q76.26 24.59 76.97 24.98Q77.67 25.38 78.28 26.15Q78.89 26.93 79.18 28.22L79.18 28.22L81.34 35.96L75.54 35.96L73.64 28.40Q73.31 27.18 72.68 26.71Q72.05 26.24 70.94 26.24L70.94 26.24Q68.49 26.24 66.81 26.23Q65.14 26.21 64.01 26.17Q62.87 26.14 61.97 26.10L61.97 26.10L62.08 22.10L71.04 22.10Q72.48 22.10 73.33 21.80Q74.18 21.49 74.52 20.70Q74.86 19.91 74.86 18.50L74.86 18.50Q74.86 17.06 74.52 16.29Q74.18 15.52 73.33 15.21Q72.48 14.90 71.04 14.90L71.04 14.90Q67.66 14.90 65.32 14.94Q62.98 14.98 62.12 15.05L62.12 15.05L61.58 11.12Q63.09 10.94 64.42 10.87Q65.75 10.80 67.34 10.78Q68.92 10.76 71.15 10.76ZM61.58 11.12L67.01 11.12L67.01 35.96L61.58 35.96L61.58 11.12ZM103.02 10.62L103.02 10.62Q104.64 10.62 105.97 10.73Q107.30 10.84 108.51 11.02Q109.72 11.20 110.87 11.56L110.87 11.56L110.44 15.55Q109.18 15.48 107.99 15.44Q106.80 15.41 105.61 15.39Q104.42 15.37 103.13 15.37L103.13 15.37Q101.58 15.37 100.55 15.70Q99.53 16.02 98.92 16.90Q98.30 17.78 98.03 19.42Q97.76 21.06 97.76 23.62L97.76 23.62Q97.76 26.71 98.16 28.48Q98.56 30.24 99.49 30.98Q100.43 31.72 102.01 31.72L102.01 31.72Q103.09 31.72 103.99 31.50Q104.89 31.28 105.65 30.91Q106.40 30.53 107.05 30.17L107.05 30.17L107.63 32.76Q107.09 33.52 106.03 34.38Q104.96 35.24 103.45 35.86Q101.94 36.47 100.00 36.47L100.00 36.47Q97.19 36.47 95.41 35.14Q93.62 33.80 92.80 30.94Q91.97 28.08 91.97 23.51L91.97 23.51Q91.97 18.65 93.03 15.84Q94.09 13.03 96.52 11.83Q98.95 10.62 103.02 10.62ZM106.40 21.64L111.73 21.64L111.73 35.96L107.66 35.96L106.91 32.18L106.40 31.18L106.40 21.64ZM129.20 11.02L129.20 11.02Q131.22 11.02 133.27 11.03Q135.32 11.05 137.30 11.12Q139.28 11.20 141.01 11.38L141.01 11.38L140.76 15.37L131.22 15.37Q130.32 15.37 129.87 15.84Q129.42 16.31 129.42 17.21L129.42 17.21L129.42 29.88Q129.42 30.78 129.87 31.25Q130.32 31.72 131.22 31.72L131.22 31.72L140.76 31.72L141.01 35.71Q139.28 35.86 137.30 35.95Q135.32 36.04 133.27 36.05Q131.22 36.07 129.20 36.07L129.20 36.07Q126.82 36.07 125.37 34.69Q123.91 33.30 123.91 31.07L123.91 31.07L123.91 16.02Q123.91 13.75 125.37 12.38Q126.82 11.02 129.20 11.02ZM124.56 24.98L124.56 21.10L139.42 21.10L139.42 24.98L124.56 24.98ZM158.48 11.12L163.98 11.12L163.98 35.96L158.48 35.96L158.48 11.12ZM151.02 11.12L171.47 11.12L171.47 15.44L151.02 15.44L151.02 11.12ZM190.78 10.66L190.78 10.66Q192.61 10.66 194.77 10.85Q196.93 11.05 198.98 11.66L198.98 11.66L198.62 15.30Q197.04 15.26 194.92 15.23Q192.79 15.19 190.74 15.19L190.74 15.19Q189.73 15.19 189.03 15.25Q188.33 15.30 187.90 15.53Q187.46 15.77 187.28 16.24Q187.10 16.70 187.10 17.53L187.10 17.53Q187.10 18.79 187.70 19.37Q188.29 19.94 189.73 20.41L189.73 20.41L194.52 21.96Q197.51 22.97 198.66 24.70Q199.81 26.42 199.81 29.23L199.81 29.23Q199.81 31.36 199.31 32.76Q198.80 34.16 197.72 34.96Q196.64 35.75 194.88 36.09Q193.12 36.43 190.56 36.43L190.56 36.43Q189.34 36.43 187.07 36.27Q184.80 36.11 181.88 35.46L181.88 35.46L182.24 31.57Q184.37 31.61 185.93 31.66Q187.50 31.72 188.62 31.73Q189.73 31.75 190.56 31.75L190.56 31.75Q192 31.75 192.81 31.57Q193.62 31.39 193.94 30.85Q194.27 30.31 194.27 29.30L194.27 29.30Q194.27 28.44 194.03 27.92Q193.80 27.40 193.28 27.09Q192.76 26.78 191.86 26.53L191.86 26.53L186.82 24.80Q183.97 23.76 182.78 22.07Q181.60 20.38 181.60 17.60L181.60 17.60Q181.60 15.44 182.12 14.09Q182.64 12.74 183.74 11.99Q184.84 11.23 186.58 10.94Q188.33 10.66 190.78 10.66ZM211.70 11.12L217.21 11.12L217.21 35.96L211.70 35.96L211.70 11.12ZM216.92 20.66L226.42 20.66L226.42 24.80L216.92 24.80L216.92 20.66ZM226.03 11.12L231.54 11.12L231.54 35.96L226.03 35.96L226.03 11.12ZM254.44 10.62L254.44 10.62Q257.39 10.62 259.44 11.25Q261.50 11.88 262.74 13.34Q263.98 14.80 264.56 17.30Q265.13 19.80 265.13 23.54L265.13 23.54Q265.13 27.29 264.56 29.79Q263.98 32.29 262.74 33.75Q261.50 35.21 259.44 35.84Q257.39 36.47 254.44 36.47L254.44 36.47Q251.49 36.47 249.44 35.84Q247.38 35.21 246.12 33.75Q244.86 32.29 244.29 29.79Q243.71 27.29 243.71 23.54L243.71 23.54Q243.71 19.80 244.29 17.30Q244.86 14.80 246.12 13.34Q247.38 11.88 249.44 11.25Q251.49 10.62 254.44 10.62ZM254.44 14.98L254.44 14.98Q252.53 14.98 251.47 15.73Q250.41 16.49 249.96 18.34Q249.51 20.20 249.51 23.54L249.51 23.54Q249.51 26.86 249.96 28.73Q250.41 30.60 251.47 31.36Q252.53 32.11 254.44 32.11L254.44 32.11Q256.31 32.11 257.37 31.36Q258.44 30.60 258.89 28.73Q259.34 26.86 259.34 23.54L259.34 23.54Q259.34 20.20 258.89 18.34Q258.44 16.49 257.37 15.73Q256.31 14.98 254.44 14.98ZM282.56 11.12L288.07 11.12L288.07 35.96L282.56 35.96L282.56 11.12ZM275.11 11.12L295.56 11.12L295.56 15.44L275.11 15.44L275.11 11.12Z" transform="translate(0, 0)"></path></g></svg></svg>